<svg width="46" height="46" viewBox="0 0 46 46" fill="none" xmlns="http://www.w3.org/2000/svg">
<path d="M23 46C10.2948 46 0 35.7052 0 23C0 10.2948 10.2948 -8.9407e-08 23 -8.9407e-08C35.7052 -8.9407e-08 46 10.2948 46 23C46 35.7052 35.7052 46 23 46ZM35.2636 21.4636H24.5364V10.7272C24.518 9.8808 23.8096 9.2092 22.9632 9.2276C22.1444 9.246 21.4912 9.9084 21.4636 10.7272V21.4636H10.7364C9.89 21.4636 9.2 22.1536 9.2 23C9.2 23.8464 9.89 24.5364 10.7364 24.5364H21.4728V35.2636C21.4912 36.11 22.1996 36.7816 23.046 36.7632C23.8648 36.7448 24.518 36.0824 24.5456 35.2636V24.5272H35.282C36.1284 24.5272 36.8184 23.8372 36.8184 22.9908C36.8184 22.1444 36.11 21.4636 35.2636 21.4636Z" fill="#C5C5C5"/>
</svg>
