<svg width="55" height="55" viewBox="0 0 55 55" fill="none" xmlns="http://www.w3.org/2000/svg">
<g clip-path="url(#clip0_1_6)">
<path d="M55 0C20.625 0 13.75 6.875 13.75 6.875V34.9938C12.7187 34.65 11.4813 34.375 10.3125 34.375C4.60625 34.375 0 38.9813 0 44.6875C0 50.3937 4.60625 55 10.3125 55C16.0187 55 20.625 50.3937 20.625 44.6875V17.3937C25.6438 15.8125 34.3063 14.3687 48.125 13.9562V28.1188C47.0937 27.775 45.8563 27.5 44.6875 27.5C38.9813 27.5 34.375 32.1063 34.375 37.8125C34.375 43.5187 38.9813 48.125 44.6875 48.125C50.3937 48.125 55 43.5187 55 37.8125V0Z" fill="#F8EAEA"/>
</g>
<defs>
<clipPath id="clip0_1_6">
<rect width="55" height="55" fill="white"/>
</clipPath>
</defs>
</svg>
